<?xml version="1.0" encoding="UTF-8"?>
<!-- Generated by Pixelmator Pro 3.7.1 -->
<svg width="18" height="18" viewBox="0 0 18 18" xmlns="http://www.w3.org/2000/svg">
    <path id="Path" fill="#000000" stroke="none" d="M 7.332447 11.126818 C 7.332447 11.279558 7.209048 11.402956 7.056308 11.402956 C 5.893943 11.402956 4.938681 12.298682 4.842784 13.434296 C 5.858464 13.845919 6.577286 14.840015 6.577286 15.998846 C 6.577286 16.151587 6.453887 16.274984 6.301147 16.274984 C 6.148407 16.274984 6.025009 16.151587 6.025009 15.998846 C 6.025009 14.777807 5.028327 13.783777 3.802869 13.783777 C 3.650129 13.783777 3.526731 13.660378 3.526731 13.507639 C 3.526731 13.354898 3.650129 13.231501 3.802869 13.231501 C 3.97373 13.231501 4.141127 13.247896 4.304225 13.278099 C 4.474223 11.912075 5.643497 10.850733 7.056993 10.850733 C 7.209733 10.850733 7.333132 10.974133 7.333132 11.126871 Z M 7.325543 7.446446 C 6.265857 8.05912 4.904141 7.69411 4.289789 6.633561 C 4.212987 6.501531 4.044711 6.456662 3.912694 6.533463 C 3.780665 6.610264 3.735794 6.778541 3.812596 6.910558 C 4.315675 7.77867 5.220039 8.272271 6.156237 8.294694 C 5.965529 8.702871 5.655742 9.041991 5.257064 9.27154 C 4.743624 9.567515 4.144735 9.646049 3.570898 9.494173 C 3.423336 9.454478 3.272315 9.542497 3.232639 9.690059 C 3.192943 9.83762 3.280963 9.988642 3.428525 10.028318 C 3.666688 10.092175 3.909182 10.12324 4.149069 10.12324 C 4.629726 10.12324 5.104331 9.997252 5.532345 9.751315 C 6.121735 9.411311 6.556641 8.879757 6.771522 8.241192 C 7.056297 8.183375 7.336744 8.07896 7.602521 7.925356 C 7.73455 7.849418 7.779422 7.680278 7.703484 7.548261 C 7.626682 7.416232 7.458405 7.37136 7.326389 7.447298 Z M 16.431259 10.124104 C 16.664253 10.537451 16.786791 11.000854 16.786791 11.477182 C 16.786791 12.353048 16.37603 13.167657 15.680515 13.689823 C 15.691734 13.792511 15.696912 13.896063 15.696912 14.00135 C 15.696912 15.241388 14.880581 16.321796 13.697495 16.663546 C 13.177137 17.40048 12.337523 17.837133 11.428079 17.837133 C 10.330418 17.837133 9.379486 17.196846 8.9298 16.270037 C 8.480203 17.196823 7.529271 17.837133 6.431522 17.837133 C 5.52285 17.837133 4.682351 17.40048 4.162107 16.663546 C 2.979881 16.321819 2.162689 15.242294 2.162689 14.00135 C 2.162689 13.896074 2.167866 13.792522 2.179084 13.689823 C 1.485292 13.169468 1.077116 12.35486 1.077116 11.477182 C 1.077116 10.998247 1.197928 10.534002 1.429203 10.124104 C 1.145289 9.678837 0.99602 9.167981 0.99602 8.635542 C 0.99602 8.060821 1.176373 7.496482 1.507737 7.031354 C 1.436113 6.790606 1.399871 6.540336 1.399871 6.287505 C 1.399871 5.073358 2.23087 4.044821 3.381174 3.767798 C 3.339753 3.606431 3.318179 3.441602 3.318179 3.275058 C 3.318179 2.44578 3.830758 1.734715 4.556494 1.44046 C 5.196782 0.920105 5.941493 0.52231 6.659452 0.317793 C 7.394665 0.108963 8.05395 0.11414 8.516471 0.3316 C 8.683018 0.410126 8.821947 0.51454 8.929817 0.641382 C 9.037683 0.51453 9.176619 0.41011 9.343163 0.3316 C 9.805706 0.11414 10.46497 0.108967 11.200182 0.317793 C 11.918141 0.522308 12.662854 0.920128 13.303141 1.44046 C 14.027994 1.735575 14.541455 2.446643 14.541455 3.275058 C 14.541455 3.442465 14.520745 3.607285 14.478461 3.767798 C 15.629604 4.043937 16.459764 5.073425 16.459764 6.287505 C 16.459764 6.541199 16.423523 6.790585 16.351896 7.031354 C 16.682402 7.496482 16.863615 8.060843 16.863615 8.635542 C 16.863615 9.167981 16.714329 9.679698 16.430431 10.124104 Z M 8.653658 15.064329 L 8.653658 5.993958 C 8.599295 5.81792 8.483661 5.672091 8.324015 5.579751 C 8.155743 5.48224 7.958142 5.457214 7.769154 5.50899 C 7.622456 5.549548 7.470571 5.462392 7.430012 5.314831 C 7.390316 5.168132 7.47661 5.016248 7.624173 4.975688 C 7.9564 4.88508 8.302434 4.929955 8.599295 5.100815 C 8.617415 5.11117 8.635536 5.122388 8.652796 5.133608 L 8.653659 1.442852 C 8.653659 1.147738 8.531986 0.947527 8.280872 0.829317 C 7.753625 0.581654 6.727605 0.727491 5.682521 1.329813 C 6.258104 1.441994 6.758599 1.802692 7.04163 2.326496 C 7.114116 2.461114 7.064065 2.628525 6.92945 2.701006 C 6.794833 2.77349 6.62742 2.723442 6.55494 2.588824 C 6.307277 2.129749 5.826619 1.844975 5.299372 1.844975 C 5.129375 1.844975 4.967144 1.875175 4.816131 1.929541 C 4.799735 1.938169 4.781613 1.945074 4.764353 1.949389 C 4.240551 2.16167 3.869488 2.675124 3.869488 3.273129 C 3.869488 3.416376 3.891923 3.557906 3.934209 3.695975 C 3.954055 3.69511 3.973904 3.694249 3.992887 3.694249 C 5.423636 3.694249 6.587702 4.856614 6.587702 6.286415 C 6.587702 6.439154 6.464304 6.562553 6.311564 6.562553 C 6.158825 6.562553 6.035426 6.439154 6.035426 6.286415 C 6.035426 5.162023 5.119 4.246436 3.992865 4.246436 C 3.921241 4.246436 3.847892 4.249888 3.776268 4.257654 C 2.73558 4.367247 1.950309 5.239668 1.950309 6.286409 C 1.950309 6.52716 1.99173 6.762736 2.072846 6.987979 C 2.105638 7.078587 2.088379 7.178686 2.028836 7.253755 C 1.717308 7.642934 1.546456 8.133952 1.546456 8.634446 C 1.546456 9.111658 1.695743 9.566423 1.977916 9.950411 C 2.379179 10.490603 2.988406 10.818524 3.651138 10.849583 C 3.803878 10.856487 3.921246 10.985928 3.91347 11.138669 C 3.906566 11.28623 3.784029 11.401859 3.638192 11.401859 L 3.625248 11.401859 C 2.936626 11.369068 2.293754 11.080856 1.808766 10.59675 C 1.689683 10.871166 1.628413 11.16975 1.628413 11.476086 C 1.628413 12.225968 2.001199 12.918898 2.625957 13.328797 C 2.717427 13.389202 2.765751 13.497932 2.746769 13.60666 C 2.725195 13.733511 2.713976 13.865545 2.713976 14.000145 C 2.713976 15.022718 3.406907 15.908085 4.39842 16.154024 C 4.466591 16.17042 4.525272 16.212702 4.563239 16.271383 C 4.974862 16.904778 5.672962 17.282734 6.429757 17.282734 C 7.655127 17.282734 8.651897 16.286913 8.651897 15.063244 Z M 16.234426 11.477182 C 16.234426 11.172569 16.171432 10.874847 16.050623 10.597847 C 15.568242 11.081089 14.925349 11.36931 14.233279 11.402094 L 14.220335 11.402094 C 14.073638 11.402094 13.951973 11.287326 13.94506 11.138901 C 13.938156 10.986162 14.055515 10.857594 14.207391 10.849817 C 14.873568 10.81789 15.482797 10.490837 15.87975 9.950644 C 16.161919 9.566636 16.312073 9.111871 16.312073 8.634681 C 16.312073 8.133324 16.140348 7.643167 15.829692 7.253989 C 15.770149 7.178916 15.752891 7.07795 15.785683 6.988212 C 15.866797 6.762993 15.908218 6.527413 15.908218 6.286644 C 15.908218 5.239041 15.122949 4.367483 14.082259 4.257889 C 14.010635 4.250985 13.937286 4.246671 13.865664 4.246671 C 12.739529 4.246671 11.823103 5.161374 11.823103 6.286647 C 11.823103 6.439386 11.699703 6.562785 11.546965 6.562785 C 11.394224 6.562785 11.270826 6.439386 11.270826 6.286647 C 11.270826 4.857621 12.434914 3.694482 13.865642 3.694482 C 13.885489 3.694482 13.905338 3.695345 13.92432 3.696207 C 13.967465 3.559003 13.98904 3.416624 13.98904 3.273362 C 13.98904 2.486368 13.347891 1.845221 12.559152 1.845221 C 12.036212 1.845221 11.554694 2.130857 11.303584 2.589931 C 11.230235 2.723686 11.062836 2.772872 10.929074 2.699523 C 10.795313 2.626175 10.746134 2.458775 10.819483 2.325013 C 11.105983 1.802073 11.606477 1.442232 12.178592 1.330053 C 11.133573 0.726858 10.106692 0.581034 9.579357 0.828697 C 9.328248 0.94692 9.206571 1.147118 9.206571 1.442232 L 9.206571 3.861867 C 9.223829 3.850649 9.241951 3.839431 9.259209 3.829074 C 9.55693 3.656487 9.902964 3.610754 10.23433 3.698772 C 10.381892 3.738469 10.469048 3.889481 10.430217 4.03703 C 10.390521 4.184593 10.239509 4.271748 10.091958 4.232918 C 9.902975 4.182868 9.706225 4.208754 9.536235 4.30713 C 9.375731 4.400328 9.260097 4.546155 9.206593 4.721337 L 9.206593 13.405777 C 9.495676 13.019184 9.887439 12.706794 10.354289 12.51005 C 10.494947 12.450508 10.656318 12.516953 10.715854 12.656749 C 10.775395 12.797407 10.709813 12.958776 10.569156 13.018312 C 9.741603 13.367793 9.20744 14.170317 9.20744 15.063457 C 9.20744 16.287104 10.204123 17.282948 11.429581 17.282948 C 12.187238 17.282948 12.884476 16.904993 13.2961 16.271597 C 13.334068 16.212919 13.393611 16.170633 13.460917 16.154238 C 14.452432 15.908298 15.145361 15.022932 15.145361 14.00036 C 15.145361 13.86574 15.134143 13.732859 15.11257 13.606874 C 15.093585 13.499008 15.141047 13.389414 15.23338 13.329012 C 15.860723 12.917389 16.235254 12.225319 16.235254 11.476301 Z M 14.057242 13.231522 C 13.886382 13.231522 13.718985 13.247917 13.555885 13.27812 C 13.385888 11.912097 12.218337 10.850755 10.807537 10.850755 C 10.654797 10.850755 10.531399 10.974152 10.531399 11.126893 C 10.531399 11.279634 10.654797 11.403031 10.807537 11.403031 C 11.967317 11.403031 12.921719 12.298757 13.017528 13.43437 C 12.001846 13.845994 11.283025 14.840092 11.283025 15.998922 C 11.283025 16.151663 11.406423 16.275061 11.559163 16.275061 C 11.711903 16.275061 11.835301 16.151663 11.835301 15.998922 C 11.835301 14.777884 12.831984 13.783852 14.057442 13.783852 C 14.21018 13.783852 14.33358 13.660454 14.33358 13.507713 C 14.33358 13.354974 14.21018 13.231575 14.057442 13.231575 Z M 13.720708 10.120659 C 13.956286 10.120659 14.196173 10.090456 14.43436 10.02746 C 14.581921 9.988629 14.669077 9.836754 14.630244 9.690063 C 14.591413 9.5425 14.439537 9.454485 14.292849 9.494176 C 13.238354 9.774623 12.154499 9.246514 11.704881 8.293838 C 12.641166 8.271401 13.544645 7.777813 14.046975 6.911424 C 14.123776 6.779393 14.078903 6.610255 13.946875 6.534329 C 13.814846 6.457526 13.645708 6.503263 13.56978 6.634427 C 12.956245 7.693252 11.59453 8.057401 10.534027 7.447311 C 10.401998 7.371373 10.23286 7.416247 10.156933 7.549139 C 10.080995 7.68117 10.125866 7.850307 10.258759 7.926233 C 10.523675 8.078975 10.804143 8.182533 11.088898 8.240346 C 11.476353 9.379406 12.553291 10.122395 13.72171 10.122395 Z"/>
</svg>
